<svg id="Calque_1" data-name="Calque 1" xmlns="http://www.w3.org/2000/svg" xmlns:xlink="http://www.w3.org/1999/xlink" viewBox="0 0 266.01 278.49"><defs><style>.cls-1{fill:url(#Dégradé_sans_nom_98);}</style><radialGradient id="Dégradé_sans_nom_98" cx="312.34" cy="279.15" r="131.37" gradientUnits="userSpaceOnUse"><stop offset="0" stop-color="#fff"/><stop offset="0.05" stop-color="#dee2ef" stop-opacity="0.97"/><stop offset="0.13" stop-color="#b3bcd9" stop-opacity="0.93"/><stop offset="0.21" stop-color="#8d9bc6" stop-opacity="0.9"/><stop offset="0.3" stop-color="#6d7fb6" stop-opacity="0.87"/><stop offset="0.39" stop-color="#5368aa" stop-opacity="0.84"/><stop offset="0.49" stop-color="#3f569f" stop-opacity="0.82"/><stop offset="0.61" stop-color="#314a98" stop-opacity="0.81"/><stop offset="0.74" stop-color="#294294" stop-opacity="0.8"/><stop offset="0.95" stop-color="#264093" stop-opacity="0.8"/></radialGradient></defs><path class="cls-1" d="M445.51,278.11A113.66,113.66,0,0,1,418,281.48c-41.88,0-78.64-22.77-99.47-57C297.38,257,261.59,278.36,221,278.36a113.24,113.24,0,0,1-40.86-7.59q-.47,8.93-.47,18.06c0,118.24,59.55,214.1,133,214.1s133-95.86,133-214.1C445.67,285.23,445.62,281.67,445.51,278.11ZM357.45,442.49,313.2,418.8l-43.85,24.5,8-51.09-35.94-35.8,49.18-7.89,21.63-46.61,22.42,46.21,49.31,7-35.33,36.45Z" transform="translate(-179.66 -224.44)"/></svg>